<svg xmlns="http://www.w3.org/2000/svg" width="256" height="256" viewBox="0 0 256 256">
<!-- SVG created with Arrow, by QuiverAI (https://quiver.ai) -->
  <path d="m129.5 48.29 22.71-0.03 44.73-42.52-28.73 53.89 0.2 0.86 43.44 35.59 23.65 46.21-20.06-9.96 7.72 37.68-45.42 38.26 18.41-62.56 17.34 16.32-24.79-45.44-12.86 3.08-7.19 8.01-13.16 3.08-3.62 2.71 10.65 35.37 3.19-16.42 21.56-14.65 0.38-14.53 5.07 14.06-23.12 76.71-39.92 36.91 0.01-39.6 11.05-1.51 4.51-5.99-18.51-1.11-16.68 1.11 5.28 5.25 10 2.25 0.01 39.29-38.1-36.13-23.91-77.18 4.5-13.69 0.38 14.16 21.18 15.03 4.13 15.67 10.21-35.75-3.59-2.31-13.11-3.08-8.3-8.77-12.09-2.71-25.53 45.81 18.1-16.04 18.09 62.65-45.42-38.26 6.6-37.68-18.46 9.96 24.03-46.97 43.44-34.47 0.19-0.82-28.73-54.65 43.98 42.88 22.33 0.03v16.78l-32.99 33.1 5.47 13-42.68-13.38 12.77 10.68 33.36 9.91 8.95 14.71-13.16 50.19 2.35 7.18 7.71 7.94 15.18-3.08c1.11-0.6 0.97-1.91 0-2.6l-8.72-7.55-2.65-11.8 7.72-4.9h18.09l8.72 5.26-3.04 11.8-10 6.82c-1.11 0.75-1.2 2.37 0.42 2.97l15.57 3.45 7.72-8.68 2.74-7.93-12.86-49.07 7.71-14.71 34.13-10.29 11.15-9.92-42.29 13.95 7.32-13.59-34.46-33.1v-17.14z" fill="#0AF93A"/>
  <path d="m54.68 11.72-9.94 25.1-0.38 50.91 31.85-26.88-0.19-1.58-21.34-47.55z" fill="#0AF93A"/>
  <path d="m200.5 11.11 9.57 25.48 0.98 51.14-32.24-27.24 21.69-49.38z" fill="#0AF93A"/>
  <path d="m127.1 70.72-22.05 24.77 9.35 15.45 2.35 21.39 10.64-13.22 12.31 13.61 0.38-21.39 10.39-16.2-23.37-24.41z" fill="#0AF93A"/>
</svg>